<?xml version="1.0" encoding="UTF-8"?>
<svg xmlns="http://www.w3.org/2000/svg" viewBox="0 0 128 128" width="128" height="128">
  <!-- Background: rounded yellow sticky note -->
  <rect x="8" y="8" width="112" height="112" rx="12" ry="12" fill="#FFE066" stroke="#E6C84D" stroke-width="2"/>
  <!-- Folded corner -->
  <path d="M 92 8 L 120 8 Q 120 8 120 8 L 120 36 Z" fill="#F5D540"/>
  <path d="M 92 8 L 92 36 L 120 36" fill="none" stroke="#D4AD2E" stroke-width="1.5" stroke-linejoin="round"/>
  <!-- Text lines suggesting notes -->
  <rect x="24" y="36" width="72" height="4" rx="2" fill="#B8960F" opacity="0.6"/>
  <rect x="24" y="50" width="60" height="4" rx="2" fill="#B8960F" opacity="0.6"/>
  <rect x="24" y="64" width="68" height="4" rx="2" fill="#B8960F" opacity="0.6"/>
  <rect x="24" y="78" width="48" height="4" rx="2" fill="#B8960F" opacity="0.6"/>
  <!-- Pencil icon -->
  <g transform="translate(80, 72) rotate(45)">
    <rect x="-3" y="-20" width="6" height="24" rx="1" fill="#5E4B00"/>
    <polygon points="-3,4 3,4 0,10" fill="#5E4B00"/>
    <rect x="-3" y="-20" width="6" height="4" rx="1" fill="#E04040"/>
  </g>
</svg>
